<svg width="1920" height="1000" viewBox="0 0 1920 1000" fill="none" xmlns="http://www.w3.org/2000/svg">
<g clip-path="url(#clip0_201_2458)">
<rect width="1920" height="1000" fill="#0F0715"/>
<g clip-path="url(#clip1_201_2458)">
<g filter="url(#filter0_f_201_2458)">
<rect x="1345" y="445" width="274" height="274" rx="137" fill="url(#paint0_linear_201_2458)"/>
</g>
<mask id="mask0_201_2458" style="mask-type:luminance" maskUnits="userSpaceOnUse" x="-1" y="0" width="1921" height="1086">
<path d="M1644.73 1085.7H1644.05C1597.71 1026.44 1543.3 941.992 1478.67 825.865C1431.87 746.109 1329.8 612.42 1225.3 538.441C1182.66 508.254 1139.62 488.013 1099.79 485.445C1060 482.88 1023.38 497.962 993.542 538.414C961.232 582.213 936.852 655.739 924.948 768.761C917.026 833.5 885.611 911.025 835.949 968.782C804.023 1005.91 764.555 1034.88 718.932 1047.04C673.305 1059.2 621.531 1054.56 565.002 1024.46C490.541 984.808 407.823 900.987 320.041 753.214C262.894 657.75 132.18 700.548 -0.00403875 751.556V750.957C132.326 699.903 263.17 657.125 320.517 752.93C408.246 900.607 490.886 984.367 565.263 1023.97C621.654 1054 673.29 1058.63 718.79 1046.51C764.294 1034.38 803.67 1005.48 835.526 968.425C885.116 910.753 916.481 833.342 924.395 768.703C936.311 655.574 960.726 581.964 993.093 538.088C1023.06 497.463 1059.84 482.312 1099.83 484.892C1139.77 487.468 1182.9 507.747 1225.62 537.988C1330.19 612.021 1432.33 745.79 1479.15 825.592V825.6C1543.9 941.949 1598.37 1026.47 1644.72 1085.7M1666.06 1085.7H1665.38C1614.93 1027.91 1554.24 937.957 1479.99 805.685C1426.09 718.029 1323.09 586.624 1219.05 514.089C1175.47 483.71 1131.72 463.66 1091.34 461.491C1050.99 459.323 1013.99 475.007 983.854 516.081C952.212 559.216 928.139 630.339 915.721 738.159V738.167C906.048 803.12 874.08 880.765 824.54 938.587C792.48 976.01 753.058 1005.13 707.558 1017.14C662.05 1029.15 610.471 1024.05 554.104 993.023C482.811 953.776 403.849 873.038 319.826 732.961C262.068 638.081 131.789 680.571 -0.00787875 731.353V730.758C131.935 679.926 262.341 637.459 320.302 732.67C404.271 872.654 483.156 953.331 554.373 992.531C610.602 1023.49 662.043 1028.58 707.416 1016.6C752.797 1004.62 792.127 975.565 824.118 938.222C873.584 880.485 905.51 802.944 915.164 738.086C927.594 630.166 951.702 558.959 983.401 515.747C1013.66 474.501 1050.83 458.751 1091.37 460.931C1131.87 463.107 1175.71 483.195 1219.36 513.628C1323.47 586.213 1426.53 717.687 1480.46 805.389V805.401C1554.87 937.946 1615.62 1027.97 1666.06 1085.7ZM1691.29 1085.7H1690.55C1635.71 1032.65 1567.76 938.088 1481.29 785.478C1420.48 690.141 1316.61 560.982 1213.06 489.824C1168.53 459.219 1124.06 439.35 1083.12 437.527C1042.21 435.707 1004.81 451.91 974.358 493.448C943.277 535.846 919.438 604.627 906.497 707.542V707.557C895.058 772.737 862.533 850.52 813.131 908.407C780.952 946.111 741.611 975.384 696.269 987.249C650.918 999.115 599.577 993.572 543.406 961.642C475.234 922.89 399.944 845.257 319.615 712.693C261.247 618.4 131.405 660.587 -0.00787875 711.142V710.547C131.551 659.942 261.515 617.782 320.087 712.405C400.358 844.881 475.58 922.453 543.679 961.162C599.708 993.015 650.911 998.547 696.127 986.716C741.35 974.881 780.595 945.677 812.705 908.05C862.038 850.244 894.516 772.569 905.94 707.473C918.893 604.462 942.77 535.597 973.904 493.126C1004.48 451.419 1042.05 435.15 1083.14 436.978C1124.19 438.805 1168.76 458.712 1213.37 489.375C1316.99 560.582 1420.92 689.819 1481.76 785.198L1481.77 785.209C1568.45 938.191 1636.47 1032.79 1691.29 1085.7L1691.29 1085.7ZM1724.65 1085.7H1723.72C1663.91 1044.22 1586.76 947.35 1482.6 765.283C1415.06 662.522 1310.39 535.543 1207.38 465.679C1161.83 434.793 1116.62 415.074 1075.1 413.562C1033.61 412.053 995.792 428.725 964.996 470.612C934.402 512.223 910.733 578.705 897.27 676.932V676.948C884.033 742.366 850.959 820.295 801.707 878.258C769.432 916.242 730.21 945.658 685.063 957.381C639.913 969.108 588.848 963.135 532.904 930.334C467.808 892.166 396.096 817.661 319.403 692.425C260.425 598.723 131.021 640.599 -0.00787875 690.932V690.337C131.163 639.958 260.694 598.102 319.876 692.133C396.518 817.289 468.161 891.732 533.184 929.858C588.983 962.575 639.905 968.536 684.921 956.847C729.945 945.155 769.075 915.804 801.281 877.901C850.468 820.014 883.499 742.189 896.717 676.852C910.195 578.528 933.899 511.966 964.546 470.286C995.466 428.233 1033.44 411.493 1075.12 413.009C1116.75 414.525 1162.06 434.279 1207.69 465.223C1310.78 535.132 1415.5 662.188 1483.07 764.995L1483.08 765.01C1587.62 947.738 1664.87 1044.56 1724.65 1085.7V1085.7ZM1919.99 1068.08V1069.51C1917.67 1074.99 1915.33 1080.39 1912.96 1085.7H1912.36C1914.93 1079.93 1917.47 1074.05 1919.99 1068.08ZM1919.99 1036.28V1037.65C1912.57 1054.48 1904.99 1070.7 1897.06 1085.7H1896.43C1904.59 1070.3 1912.37 1053.6 1919.99 1036.27V1036.28ZM1919.99 1004.89V1006.22C1906.5 1035.56 1892.59 1063.15 1877.18 1085.7H1876.5C1892.18 1062.85 1906.29 1034.75 1919.99 1004.89ZM1919.99 973.906V975.192C1898.55 1019.83 1876.24 1060.73 1849.09 1085.7H1848.26C1875.76 1060.65 1898.3 1019.15 1919.99 973.906ZM1919.99 943.316V944.552C1892.85 998.527 1864.61 1047.44 1827.93 1068.64C1759.03 1108.47 1660.5 1050.58 1483.91 745.103C1409.89 635.198 1304.47 510.323 1202.03 441.661C1155.41 410.418 1109.41 390.818 1067.27 389.582C1025.17 388.346 986.911 405.455 955.734 447.611C925.574 488.393 902.039 552.61 888.046 646.319V646.342C872.989 712.014 839.37 790.096 790.276 848.148C757.927 886.396 718.856 915.954 673.943 927.547C629.026 939.136 578.281 932.756 522.597 899.118C460.527 861.625 392.317 790.261 319.192 672.161C259.603 579.043 130.633 620.619 -0.00787875 670.721V670.126C130.779 619.974 259.872 578.421 319.664 671.865C392.74 789.885 460.888 861.188 522.885 898.638C578.427 932.188 629.026 938.56 673.805 927.002C718.591 915.443 757.567 885.951 789.849 847.783C838.878 789.808 872.459 711.822 887.493 646.227C901.501 552.425 925.075 488.132 955.284 447.281C986.58 404.959 1025 387.785 1067.28 389.025C1109.53 390.265 1155.63 409.9 1202.33 441.196C1304.85 509.901 1410.32 634.841 1484.37 744.792L1484.39 744.807C1660.76 1049.92 1759.03 1107.83 1827.65 1068.16C1864.43 1046.9 1892.74 997.602 1920 943.312L1919.99 943.316ZM1919.99 913.098V914.292C1892.16 967.073 1863.43 1015.38 1826.61 1036.89C1757.28 1077.41 1659.4 1022.99 1485.21 724.896C1404.95 608.178 1298.89 485.349 1197.06 417.8C1149.27 386.1 1102.42 366.577 1059.62 365.586C1016.86 364.596 978.132 382.119 946.537 424.494C916.769 464.42 893.334 526.392 878.818 615.713V615.721L878.815 615.736C861.919 681.669 827.758 759.924 778.836 818.064C746.434 856.578 707.551 886.273 662.914 897.732C618.271 909.198 567.886 902.419 512.49 867.986C453.4 831.254 388.604 763.041 318.985 651.9C258.789 559.362 130.253 600.635 -0.00787875 650.515V649.92C130.391 599.994 259.05 558.748 319.449 651.601C389.019 762.669 453.757 830.824 512.782 867.518C568.036 901.862 618.271 908.626 662.772 897.198C707.282 885.771 746.07 856.14 778.406 817.711C827.266 759.64 861.389 681.481 878.265 615.614C892.796 526.203 916.27 464.152 946.084 424.16C977.798 381.624 1016.69 364.035 1059.63 365.03C1102.54 366.024 1149.49 385.578 1197.36 417.335C1299.26 484.93 1405.38 607.825 1485.68 724.601L1485.69 724.616C1659.66 1022.33 1757.27 1076.76 1826.32 1036.41C1863.24 1014.84 1892.04 966.175 1919.98 913.102L1919.99 913.098ZM1919.99 883.241V884.389C1891.52 935.784 1862.35 983.265 1825.48 1005.06C1755.66 1046.33 1658.4 995.48 1486.52 704.701C1400.32 581.534 1293.68 460.662 1192.52 394.108C1143.46 361.828 1095.69 342.332 1052.17 341.556C1008.69 340.781 969.442 358.707 937.386 401.27C907.987 440.306 884.628 500.058 869.591 585.096V585.108L869.583 585.123C850.813 651.336 816.115 729.771 767.385 788.015C734.949 826.782 696.292 856.612 651.97 867.952C607.641 879.295 557.656 872.143 502.579 836.951C446.411 801.063 384.948 736.002 318.774 631.632C257.971 539.681 129.865 580.651 -0.00403875 630.304V629.709C130.007 580.01 258.236 539.067 319.242 631.333C385.371 735.633 446.78 800.641 502.879 836.486C557.81 871.587 607.645 878.723 651.836 867.414C696.034 856.105 734.596 826.344 766.959 787.658C815.635 729.483 850.291 651.136 869.046 584.989C884.102 499.866 907.492 440.037 936.944 400.936C969.12 358.216 1008.52 340.224 1052.18 341.004C1095.81 341.779 1143.68 361.31 1192.83 393.643C1294.06 460.24 1400.76 581.173 1486.99 704.398L1487 704.413C1658.66 994.815 1755.66 1045.69 1825.19 1004.58C1862.15 982.735 1891.41 934.905 1919.99 883.241ZM1919.99 853.726V854.827C1890.95 904.649 1861.38 951.105 1824.57 973.131C1754.19 1015.24 1657.5 968.06 1487.84 684.514C1396.03 555.308 1288.93 436.31 1188.48 370.63C1138.01 337.629 1089.22 318.094 1044.92 317.503C1000.65 316.912 960.833 335.249 928.266 377.977C899.209 416.103 875.915 473.645 860.359 554.483V554.498L860.352 554.514C839.677 621.015 804.453 699.646 755.923 758.001C723.479 797.017 685.083 826.974 641.115 838.206C597.131 849.438 547.588 841.937 492.852 806.023C439.565 771.06 381.346 709.154 318.559 611.372C257.149 520.004 129.477 560.671 -0.00787875 610.101V609.506C129.615 560.034 257.414 519.39 319.023 611.069C381.769 708.785 439.926 770.638 493.156 805.562C547.745 841.38 597.143 848.866 640.976 837.672C684.822 826.475 723.122 796.583 755.493 757.655C803.965 699.365 839.155 620.819 859.814 554.375C875.385 473.456 898.717 415.842 927.821 377.651C960.503 334.766 1000.47 316.367 1044.92 316.958C1089.33 317.549 1138.22 337.115 1188.78 370.173C1289.28 435.891 1396.44 554.947 1488.28 684.207L1488.3 684.226C1657.73 967.407 1754.17 1014.6 1824.27 972.663C1861.17 950.583 1890.82 903.805 1919.98 853.733L1919.99 853.726ZM1919.99 824.536V825.6C1890.46 873.667 1860.56 918.883 1823.92 941.09C1752.9 984.136 1656.7 940.756 1489.14 664.318C1392.11 529.551 1284.66 412.341 1185 347.41C1132.96 313.503 1083.05 293.861 1037.88 293.423C992.732 292.99 952.297 311.741 919.169 354.631C890.438 391.824 867.199 447.165 851.136 523.873V523.889L851.128 523.904C828.518 590.712 792.772 669.547 744.461 728.025C712.032 767.279 673.939 797.362 630.355 808.495C586.763 819.627 537.688 811.792 483.321 775.198C432.856 741.234 377.817 682.483 318.351 591.107C256.339 500.319 129.093 540.683 -0.00787875 589.887V589.292C129.231 540.046 256.596 499.705 318.812 590.793C378.236 682.107 433.221 740.808 483.629 774.734C537.849 811.228 586.771 819.043 630.217 807.95C673.674 796.856 711.671 766.837 744.031 727.668C792.288 669.255 828.004 590.493 850.594 523.739C866.676 446.954 889.951 391.543 918.727 354.285C951.974 311.242 992.559 292.421 1037.88 292.859C1083.17 293.297 1133.18 312.974 1185.3 346.934C1285.02 411.904 1392.53 529.167 1489.6 663.988L1489.61 664.008C1656.94 940.08 1752.88 983.48 1823.63 940.602C1860.35 918.342 1890.33 872.823 1919.98 824.525L1919.99 824.536ZM1919.99 795.658V796.679C1890.07 842.816 1859.92 886.577 1823.58 908.91C1751.82 953.005 1656.04 913.582 1490.45 644.112C1388.62 504.323 1280.96 388.814 1182.16 324.493C1128.36 289.466 1077.21 269.624 1031.06 269.309C984.948 268.994 943.83 288.191 910.076 331.246C881.664 367.49 858.47 420.633 841.908 493.268V493.291L841.897 493.302C817.321 560.429 781.06 639.486 732.987 698.095C700.596 737.583 662.845 767.797 619.688 778.833C576.518 789.873 527.958 781.728 473.975 744.496C426.278 711.603 374.338 655.996 318.136 570.843C255.521 480.642 128.705 520.706 -0.0117188 569.684V569.089C128.839 520.069 255.778 480.028 318.597 570.532C374.757 655.628 426.647 711.185 474.286 744.04C528.119 781.163 576.526 789.294 619.545 778.292C662.576 767.29 700.235 737.149 732.553 697.742C780.572 639.194 816.806 560.202 841.367 493.122C857.948 420.418 881.176 367.206 909.634 330.904C943.499 287.704 984.772 268.438 1031.06 268.752C1077.32 269.067 1128.58 288.944 1182.46 324.025C1281.32 388.392 1389.04 503.955 1490.9 643.805L1490.91 643.824C1656.28 912.918 1751.8 952.364 1823.28 908.438C1859.71 886.051 1889.94 842.006 1919.98 795.662L1919.99 795.658ZM1919.99 767.079V768.062C1889.79 812.084 1859.51 854.171 1823.6 876.562C1751 921.839 1655.55 886.569 1491.76 623.924C1385.63 479.717 1277.92 365.809 1180.07 301.934C1124.29 265.524 1071.72 245.375 1024.5 245.145C977.299 244.918 935.424 264.591 900.983 307.822C872.886 343.092 849.734 394.042 832.685 462.651V462.67L832.673 462.685C793.874 561.158 733.375 684.832 648.48 733.057C563.535 781.309 454.23 754.059 317.929 550.579C254.715 460.954 128.321 500.722 -0.0117188 549.473V548.878C128.452 500.085 254.964 460.344 318.382 550.26C454.468 753.421 563.508 780.684 648.2 732.574C732.941 684.437 793.375 560.886 832.139 462.497C849.212 393.816 872.394 342.804 900.537 307.477C935.09 264.1 977.119 244.361 1024.49 244.592C1071.83 244.822 1124.49 265.002 1180.36 301.469C1278.27 365.383 1386.04 479.345 1492.21 623.606L1492.22 623.625C1655.77 885.901 1750.96 921.198 1823.3 876.093C1859.29 853.649 1889.67 811.297 1919.98 767.083L1919.99 767.079ZM1919.99 738.781V739.729C1889.67 781.451 1859.38 821.646 1824.07 844.006C1750.48 890.627 1655.25 859.748 1493.08 603.733C1383.2 455.806 1275.62 343.414 1178.81 279.827C1120.78 241.713 1066.64 221.134 1018.2 220.953C969.792 220.769 927.076 240.964 891.874 284.395C864.092 318.67 840.987 367.425 823.461 432.053V432.064L823.446 432.087C782.008 530.269 722.465 653.037 639.836 702.171C557.153 751.341 451.419 726.823 317.721 530.326C253.908 441.281 127.937 480.75 -0.00787875 529.274V528.679C128.071 480.113 254.154 440.67 318.175 530C451.649 726.178 557.119 750.711 639.548 701.692C722.027 652.641 781.517 529.996 822.919 431.895C840.468 367.199 863.604 318.382 891.437 284.046C926.749 240.477 969.615 220.216 1018.19 220.401C1066.74 220.585 1120.99 241.195 1179.1 279.366C1275.97 342.996 1383.61 455.434 1493.52 603.414L1493.53 603.433C1655.47 859.084 1750.44 889.993 1823.77 843.545C1859.16 821.128 1889.54 780.687 1919.98 738.788L1919.99 738.781ZM1919.99 710.751V711.661C1889.74 750.892 1859.6 788.956 1825.09 811.185C1750.32 859.349 1655.18 833.169 1494.38 583.53C1381.4 432.678 1274.17 321.733 1178.52 258.257C1117.92 218.047 1061.99 196.889 1012.19 196.704C962.427 196.52 918.777 217.295 882.739 260.944C855.272 294.206 832.216 340.758 814.233 401.439L814.226 401.459L814.218 401.474C770.143 499.364 711.552 621.222 631.188 671.27C550.763 721.357 448.604 699.573 317.506 510.05C253.09 421.592 127.549 460.766 -0.0117188 509.064V508.473C127.68 460.132 253.34 420.986 317.96 509.732V509.739C448.831 698.928 550.725 720.731 630.893 670.802C711.118 620.838 769.659 499.083 813.7 401.263C831.705 340.52 854.795 293.911 882.305 260.595C918.463 216.808 962.25 195.967 1012.19 196.152C1062.1 196.336 1118.13 217.529 1178.82 257.797C1274.53 321.311 1381.81 432.306 1494.83 583.215L1494.84 583.231C1655.4 832.498 1750.28 858.712 1824.78 810.721C1859.38 788.434 1889.61 750.147 1919.99 710.755L1919.99 710.751ZM1919.99 682.974V683.853C1890.04 720.382 1860.27 756.062 1826.79 778.02C1750.64 827.968 1655.43 806.894 1495.69 563.339C1380.33 410.449 1273.72 300.901 1179.36 237.356C1115.82 194.566 1057.84 172.644 1006.52 172.406C955.219 172.168 910.541 193.591 873.565 237.502C846.428 269.727 823.43 314.064 805.002 370.83V370.841L804.987 370.864L804.334 372.223C758.868 467.226 703.054 583.845 628.151 636.569C549.108 692.206 448.884 676.729 317.295 489.79C252.284 401.911 127.161 440.786 -0.0117188 488.861V488.27C127.292 440.156 252.53 401.305 317.744 489.464V489.471C449.095 676.065 549.051 691.573 627.832 636.116C702.616 583.476 758.396 466.927 803.835 371.985L804.472 370.649C822.919 313.822 845.952 269.428 873.135 237.149C910.226 193.108 955.042 171.615 1006.51 171.857C1057.95 172.099 1116.03 194.052 1179.66 236.903C1274.07 300.483 1380.74 410.08 1496.14 563.02L1496.15 563.035C1655.65 806.218 1750.59 827.335 1826.48 777.563C1860.05 755.548 1889.92 719.664 1919.99 682.986V682.974ZM1919.99 655.443V656.288C1890.64 689.884 1861.52 722.9 1829.37 744.397C1751.54 796.445 1656.07 781.014 1497 543.14C1380.09 389.248 1274.41 281.082 1181.51 217.295C1114.56 171.323 1054.27 148.41 1001.21 148.049C948.173 147.689 902.358 169.861 864.345 214.063C837.546 245.225 814.621 287.335 795.778 340.217L795.771 340.236L795.763 340.251C792.23 347.218 788.659 354.301 785.049 361.464C738.981 452.854 686.093 557.765 617.391 607.026C540.918 661.865 444.921 647.785 317.088 469.518C251.478 382.223 126.781 420.802 -0.00787875 468.65V468.055C126.908 420.168 251.723 381.613 317.537 469.192C445.121 647.117 540.845 661.228 617.061 606.577C685.651 557.393 738.505 452.547 784.546 361.214C788.156 354.055 791.727 346.976 795.256 340.017C814.122 287.078 837.078 244.918 863.919 213.706C902.043 169.373 948.004 147.136 1001.21 147.497C1054.38 147.858 1114.79 170.805 1181.83 216.838C1274.77 280.66 1380.5 388.868 1497.45 542.817L1497.46 542.829C1656.28 780.33 1751.5 795.808 1829.06 743.936C1861.31 722.374 1890.53 689.178 1919.99 655.443ZM1919.99 628.139V628.957C1891.65 659.34 1863.57 689.362 1833.13 710.152C1753.24 764.707 1657.25 755.682 1498.31 522.948C1335.12 309.45 1197.3 186.613 1084.81 142.472C1045.84 127.183 1009.92 121.34 977.042 124.442C944.171 127.543 914.331 139.585 887.528 160.076C846.919 191.115 813.262 241.536 786.551 309.615V309.626L786.536 309.646C779.804 322.209 772.969 335.222 766.038 348.412C720.096 435.872 669.999 531.244 606.662 577.561C532.777 631.594 440.955 618.919 316.88 449.261C250.675 362.546 126.397 400.833 -0.00403875 448.451V447.856C126.524 400.196 250.921 361.936 317.33 448.927C441.154 618.247 532.711 630.957 606.332 577.112C669.565 530.867 719.631 435.557 765.546 348.151C772.447 335.015 779.251 322.056 786.036 309.4C812.786 241.237 846.501 190.735 887.193 159.635C914.081 139.082 944.014 127.002 976.992 123.889C1009.96 120.78 1045.97 126.634 1085.01 141.954C1197.6 186.129 1335.5 309.027 1498.76 522.618L1498.76 522.63C1657.44 754.991 1753.18 764.066 1832.81 709.691C1863.35 688.836 1891.54 658.653 1919.99 628.139ZM1919.99 601.057V601.844L1919.45 602.385C1892.87 629.018 1866.52 655.417 1838.5 674.994C1756.03 732.608 1659.16 731.126 1499.62 502.761C1337.15 291.389 1202.59 170.801 1092.71 123.16C1049.46 104.412 1010.05 96.9608 974.258 99.7208C938.48 102.481 906.324 115.448 877.593 137.535C837.773 168.145 804.522 216.266 777.32 279.009V279.021L777.308 279.036C767.347 296.675 757.359 315.07 747.268 333.652C701.963 417.09 654.547 504.419 595.976 548.161C524.705 601.384 436.999 590.121 316.669 428.997C249.872 342.858 126.009 380.849 -0.00787875 428.245V427.65C126.132 380.219 250.111 342.251 317.111 428.663C437.184 589.449 524.628 600.743 595.638 547.715C654.117 504.043 701.503 416.775 746.776 333.388C756.852 314.828 766.825 296.464 776.813 278.779C804.054 215.955 837.358 167.765 877.252 137.098C906.071 114.945 938.327 101.939 974.216 99.168C1010.09 96.4003 1049.59 103.863 1092.93 122.649C1202.9 170.333 1337.53 290.974 1500.06 502.419L1500.07 502.431C1659.35 730.432 1755.96 731.979 1838.18 674.541C1866.16 654.994 1892.49 628.615 1919.06 601.998L1919.99 601.061V601.057ZM1919.99 574.183V574.943L1918.3 576.524C1894.51 598.743 1870.91 620.788 1846.28 638.423C1760.42 699.91 1662.21 707.787 1500.93 482.558C1302.87 226.235 1149.58 105.44 1030.83 79.8749C912.173 54.3286 827.988 123.927 768.088 248.404L768.08 248.415V248.423C754.836 270.718 741.792 294.11 728.701 317.588C684.411 397.013 639.594 477.387 585.331 518.826C516.703 571.239 433.048 561.396 316.458 408.733C249.07 323.165 125.622 360.869 -0.0117188 408.038V407.443C125.744 360.239 249.3 322.563 316.896 408.391C433.229 560.725 516.622 570.601 584.993 518.388C639.164 477.019 683.954 396.695 728.214 317.323C741.312 293.83 754.364 270.422 767.589 248.15C827.604 123.44 911.977 53.7183 1030.94 79.3298C1149.81 104.926 1303.22 225.782 1501.36 482.224L1501.37 482.232C1662.38 707.077 1760.34 699.273 1845.95 637.97C1870.55 620.35 1894.14 598.32 1917.91 576.118L1919.98 574.183H1919.99ZM1919.99 547.504V548.241L1917.21 550.656C1897.59 567.696 1878.08 584.632 1858.11 599.326C1767.49 665.992 1667.22 686.617 1502.24 462.363C1295.65 196.244 1140.59 77.6869 1021.78 54.3785C903.049 31.0894 820.5 102.976 758.864 217.786L758.857 217.802C742.291 244.396 726.267 272.526 710.338 300.49C667.353 375.962 625.06 450.217 574.756 489.56C508.784 541.159 429.116 532.748 316.255 388.457C248.275 303.473 125.241 340.881 -0.00403875 387.824V387.229C125.364 340.251 248.502 302.866 316.688 388.112C429.289 532.073 508.696 540.518 574.41 489.122C624.626 449.845 666.893 375.636 709.851 300.214C725.787 272.238 741.815 244.093 758.377 217.514C820.128 102.496 902.857 30.4829 1021.88 53.8334C1140.82 77.1648 1296 195.787 1502.68 462.013H1502.69C1667.39 685.884 1767.41 665.347 1857.78 598.862C1877.75 584.175 1897.24 567.25 1916.85 550.222L1920 547.493L1919.99 547.504ZM1919.99 521.014V521.728L1916.19 524.783C1805.61 613.771 1698.75 699.757 1503.54 442.168C1288.42 166.268 1131.6 49.9449 1012.72 28.8975C893.925 7.86549 813.005 82.0399 749.633 187.181L749.625 187.188C729.634 217.832 710.726 250.488 692.144 282.583C650.688 354.178 610.863 422.959 564.238 460.378C500.943 511.171 425.199 504.204 316.047 368.193C247.476 283.784 124.857 320.9 -0.00019875 367.617V367.022C124.98 320.271 247.703 283.178 316.481 367.84C425.364 503.521 500.855 510.526 563.888 459.941C610.437 422.59 650.235 353.851 691.664 282.299C710.246 250.204 729.158 217.545 749.157 186.889C812.644 81.5601 893.729 7.25898 1012.82 28.3409C1131.82 49.4113 1288.76 165.796 1503.99 441.807C1698.85 698.943 1805.49 613.134 1915.85 524.326L1920 520.991L1919.99 521.014ZM1919.99 494.703V495.394L1915.27 498.907C1802.71 582.547 1693.9 663.409 1504.86 421.972C1155.02 -24.8437 964.427 -51.8986 835.703 48.8931C770.096 100.262 720.522 184.851 674.127 264.012C634.387 331.821 596.978 395.655 553.789 431.281C493.186 481.272 421.29 475.763 315.84 347.932C246.681 264.096 124.477 300.928 -0.00019875 347.418V346.823C124.592 300.298 246.904 263.497 316.27 347.579C421.451 475.08 493.094 480.631 553.436 430.851C596.548 395.286 633.934 331.495 673.647 263.731C720.069 184.528 769.666 99.8935 835.361 48.4593C964.327 -52.5205 1155.18 -25.5347 1505.3 421.623C1694.01 662.629 1802.61 581.929 1914.94 498.454L1920 494.696L1919.99 494.703ZM-0.00019875 771.171C132.714 719.891 264 676.806 320.732 773.202C412.281 928.752 498.762 1015.57 576.345 1055.47C632.863 1084.54 684.656 1088.72 730.241 1076.43C775.833 1064.15 815.22 1035.41 846.923 998.658C896.624 941.044 927.429 863.752 933.619 799.328C945.031 680.571 969.876 604.474 1003.06 560.034C1032.76 520.261 1069.14 505.828 1108.56 508.86C1147.93 511.893 1190.33 532.368 1232.11 562.429C1337.11 637.978 1438.29 774.096 1477.85 845.795C1534.48 948.418 1583.3 1026.96 1625.73 1085.7H1625.06C1582.66 1026.97 1533.88 948.494 1477.36 846.06C1437.82 774.407 1336.71 638.377 1231.78 562.878C1190.08 532.875 1147.78 512.438 1108.51 509.413C1069.29 506.392 1033.08 520.764 1003.51 560.364C970.379 604.727 945.573 680.732 934.172 799.378C927.97 863.906 897.12 941.316 847.342 999.019C815.57 1035.85 776.091 1064.66 730.383 1076.97C684.672 1089.29 632.743 1085.11 576.088 1055.97C498.42 1016.02 411.859 929.132 320.248 773.478C263.719 677.427 132.56 720.536 -0.00403875 771.766V771.167L-0.00019875 771.171Z" fill="white"/>
</mask>
<g mask="url(#mask0_201_2458)">
<path d="M1920 -53H0V1107.99H1920V-53Z" fill="#301544"/>
</g>
</g>
<g filter="url(#filter1_f_201_2458)">
<rect x="1690" y="-119" width="322" height="308" rx="154" fill="url(#paint1_linear_201_2458)"/>
</g>
<mask id="mask1_201_2458" style="mask-type:luminance" maskUnits="userSpaceOnUse" x="0" y="-43" width="1921" height="1086">
<path d="M1644.74 1042.69H1644.07C1597.72 983.44 1543.31 898.989 1478.68 782.862C1431.89 703.106 1329.81 569.417 1225.31 495.439C1182.67 465.251 1139.64 445.01 1099.8 442.442C1060.01 439.878 1023.39 454.96 993.554 495.412C961.244 539.211 936.864 612.737 924.96 725.758C917.038 790.497 885.623 868.023 835.96 925.779C804.035 962.907 764.567 991.873 718.944 1004.04C673.317 1016.2 621.542 1011.55 565.014 981.455C490.552 941.806 407.835 857.985 320.052 710.212C262.906 614.748 132.192 657.545 0.00768 708.553V707.955C132.338 656.9 263.182 614.122 320.529 709.928C408.257 857.605 490.898 941.364 565.275 980.968C621.665 1010.99 673.302 1015.63 718.802 1003.5C764.306 991.374 803.681 962.473 835.538 925.422C885.128 867.75 916.493 790.34 924.407 725.701C936.323 612.572 960.737 538.961 993.105 495.086C1023.08 454.461 1059.86 439.31 1099.84 441.889C1139.78 444.465 1182.91 464.745 1225.63 494.986C1330.2 569.018 1432.34 702.788 1479.16 782.59V782.597C1543.91 898.947 1598.38 983.463 1644.73 1042.7M1666.08 1042.7H1665.39C1614.94 984.91 1554.25 894.955 1480 762.682C1426.1 675.027 1323.1 543.622 1219.06 471.086C1175.49 440.707 1131.74 420.658 1091.35 418.489C1051 416.32 1014 432.005 983.866 473.078C952.224 516.214 928.151 587.336 915.732 695.156V695.164C906.06 760.118 874.092 837.763 824.552 895.584C792.492 933.007 753.07 962.127 707.57 974.139C662.062 986.15 610.483 981.048 554.116 950.02C482.822 910.774 403.861 830.035 319.837 689.959C262.08 595.079 131.8 637.569 0.00384 688.35V687.755C131.946 636.924 262.353 594.457 320.314 689.667C404.283 829.652 483.168 910.329 554.385 949.529C610.614 980.484 662.054 985.574 707.428 973.597C752.809 961.617 792.138 932.562 824.129 895.22C873.596 837.482 905.522 759.941 915.176 695.083C927.606 587.163 951.713 515.956 983.412 472.745C1013.67 431.498 1050.84 415.748 1091.38 417.928C1131.88 420.105 1175.72 440.193 1219.37 470.626C1323.48 543.211 1426.54 674.685 1480.47 762.387V762.398C1554.89 894.943 1615.63 984.971 1666.08 1042.7ZM1691.3 1042.7H1690.56C1635.72 989.643 1567.77 895.085 1481.3 742.476C1420.49 647.139 1316.62 517.979 1213.08 446.822C1168.54 416.216 1124.07 396.348 1083.13 394.524C1042.22 392.705 1004.82 408.908 974.369 450.446C943.288 492.844 919.45 561.625 906.509 664.539V664.555C895.069 729.735 862.545 807.518 813.143 865.405C780.964 903.108 741.623 932.382 696.28 944.247C650.93 956.112 599.589 950.569 543.418 918.639C475.246 879.888 399.955 802.255 319.626 669.691C261.258 575.398 131.416 617.585 0.00384 668.14V667.545C131.562 616.94 261.527 574.78 320.099 669.403C400.37 801.879 475.592 879.45 543.69 918.159C599.72 950.013 650.922 955.544 696.138 943.713C741.362 931.879 780.607 902.674 812.717 865.048C862.049 807.241 894.528 729.566 905.952 664.47C918.904 561.46 942.781 492.594 973.916 450.123C1004.49 408.416 1042.06 392.148 1083.15 393.975C1124.21 395.802 1168.77 415.71 1213.38 446.373C1317 517.58 1420.93 646.816 1481.77 742.195L1481.78 742.207C1568.46 895.189 1636.48 989.789 1691.3 1042.7L1691.3 1042.7ZM1724.66 1042.7H1723.73C1663.93 1001.22 1586.78 904.348 1482.61 722.28C1415.07 619.519 1310.4 492.54 1207.39 422.677C1161.85 391.791 1116.63 372.072 1075.11 370.559C1033.62 369.051 995.804 385.722 965.007 427.61C934.414 469.221 910.744 535.702 897.281 633.93V633.945C884.045 699.364 850.971 777.292 801.719 835.256C769.444 873.239 730.222 902.655 685.075 914.378C639.924 926.106 588.86 920.133 532.915 887.331C467.82 849.163 396.108 774.659 319.415 649.423C260.436 555.721 131.032 597.597 0.00384 647.929V647.334C131.174 596.956 260.705 555.099 319.887 649.131C396.53 774.287 468.173 848.73 533.196 886.855C588.995 919.572 639.917 925.534 684.933 913.845C729.957 902.152 769.087 872.802 801.293 834.899C850.479 777.012 883.511 699.187 896.728 633.849C910.207 535.526 933.911 468.963 964.558 427.283C995.478 385.231 1033.46 368.49 1075.13 370.007C1116.76 371.523 1162.07 391.277 1207.7 422.22C1310.79 492.13 1415.52 619.185 1483.08 721.992L1483.09 722.008C1587.64 904.736 1664.88 1001.56 1724.66 1042.7V1042.7ZM1920 1025.08V1026.51C1917.68 1031.98 1915.34 1037.38 1912.98 1042.7H1912.37C1914.94 1036.92 1917.48 1031.04 1920 1025.08ZM1920 993.274V994.652C1912.58 1011.48 1905 1027.7 1897.07 1042.7H1896.45C1904.6 1027.29 1912.38 1010.6 1920 993.271V993.274ZM1920 961.886V963.221C1906.51 992.553 1892.61 1020.15 1877.19 1042.7H1876.52C1892.19 1019.85 1906.3 991.743 1920 961.886ZM1920 930.904V932.19C1898.56 976.83 1876.25 1017.73 1849.1 1042.7H1848.27C1875.77 1017.65 1898.31 976.15 1920 930.904ZM1920 900.314V901.55C1892.87 955.525 1864.62 1004.43 1827.94 1025.64C1759.04 1065.47 1660.51 1007.58 1483.93 702.101C1409.9 592.196 1304.49 467.321 1202.04 398.658C1155.42 367.416 1109.42 347.815 1067.28 346.579C1025.18 345.343 986.922 362.452 955.745 404.608C925.586 445.39 902.051 509.607 888.058 603.316V603.34C873.001 669.011 839.382 747.093 790.287 805.146C757.939 843.394 718.867 872.952 673.955 884.544C629.038 896.133 578.293 889.753 522.609 856.115C460.539 818.623 392.329 747.259 319.204 629.158C259.615 536.04 130.644 577.617 0.00384 627.719V627.124C130.79 576.972 259.884 535.418 319.676 628.863C392.751 746.882 460.9 818.185 522.897 855.635C578.438 889.185 629.038 895.557 673.816 883.999C718.602 872.441 757.578 842.949 789.861 804.781C838.89 746.806 872.471 668.819 887.505 603.224C901.513 509.423 925.087 445.129 955.296 404.278C986.592 361.957 1025.01 344.783 1067.29 346.023C1109.54 347.263 1155.64 366.897 1202.35 398.194C1304.86 466.898 1410.33 591.839 1484.39 701.79L1484.4 701.805C1660.77 1006.92 1759.04 1064.82 1827.66 1025.16C1864.44 1003.9 1892.76 954.6 1920.01 900.31L1920 900.314ZM1920 870.096V871.289C1892.17 924.071 1863.44 972.373 1826.62 993.892C1757.29 1034.41 1659.41 979.989 1485.22 681.894C1404.96 565.176 1298.9 442.346 1197.07 374.797C1149.28 343.098 1102.43 323.574 1059.64 322.584C1016.87 321.593 978.144 339.117 946.548 381.492C916.781 421.418 893.345 483.389 878.83 572.711V572.719L878.826 572.734C861.93 638.667 827.77 716.922 778.848 775.062C746.446 813.575 707.562 843.271 662.926 854.729C618.282 866.195 567.898 859.416 512.502 824.984C453.412 788.252 388.616 720.039 318.996 608.898C258.801 516.359 130.264 557.633 0.00384 607.512V606.917C130.403 556.992 259.062 515.745 319.461 608.599C389.03 719.666 453.769 787.822 512.794 824.515C568.047 858.86 618.282 865.624 662.784 854.196C707.293 842.768 746.081 813.138 778.418 774.709C827.278 716.638 861.4 638.479 878.277 572.611C892.808 483.201 916.282 421.149 946.095 381.158C977.81 338.622 1016.7 321.033 1059.64 322.027C1102.56 323.021 1149.5 342.576 1197.37 374.333C1299.27 441.928 1405.39 564.822 1485.69 681.598L1485.7 681.614C1659.67 979.332 1757.28 1033.76 1826.33 993.412C1863.25 971.839 1892.05 923.173 1920 870.099L1920 870.096ZM1920 840.239V841.386C1891.53 892.782 1862.36 940.262 1825.49 962.058C1755.67 1003.33 1658.41 952.477 1486.53 661.699C1400.33 538.531 1293.7 417.66 1192.53 351.105C1143.47 318.826 1095.7 299.329 1052.18 298.554C1008.7 297.778 969.454 315.705 937.398 358.268C907.999 397.303 884.64 457.056 869.603 542.094V542.105L869.595 542.121C850.825 608.334 816.127 686.769 767.397 745.013C734.961 783.78 696.303 813.61 651.982 824.949C607.653 836.292 557.668 829.141 502.591 793.948C446.423 758.061 384.96 692.999 318.785 588.63C257.983 496.679 129.876 537.649 0.00768 587.302V586.707C130.019 537.008 258.248 496.064 319.254 588.33C385.382 692.631 446.792 757.638 502.89 793.484C557.821 828.584 607.657 835.72 651.848 824.412C696.046 813.103 734.607 783.342 766.971 744.656C815.647 686.481 850.303 608.134 869.057 541.986C884.114 456.864 907.503 397.035 936.956 357.934C969.132 315.214 1008.53 297.222 1052.19 298.001C1095.82 298.776 1143.69 318.308 1192.84 350.641C1294.08 417.237 1400.77 538.171 1487 661.395L1487.01 661.411C1658.67 951.813 1755.67 1002.68 1825.21 961.579C1862.17 939.733 1891.42 891.903 1920 840.239ZM1920 810.723V811.825C1890.96 861.647 1861.39 908.102 1824.58 930.128C1754.2 972.239 1657.51 925.057 1487.85 641.511C1396.04 512.306 1288.94 393.307 1188.49 327.628C1138.02 294.627 1089.24 275.092 1044.93 274.501C1000.66 273.91 960.845 292.247 928.278 334.975C899.221 373.101 875.927 430.642 860.371 511.48V511.496L860.364 511.511C839.689 578.012 804.465 656.643 755.935 714.998C723.491 754.015 685.094 783.971 641.126 795.203C597.143 806.435 547.599 798.935 492.864 763.02C439.576 728.058 381.358 666.152 318.57 568.369C257.161 477.002 129.489 517.668 0.00384 567.099V566.504C129.627 517.031 257.426 476.387 319.035 568.066C381.78 665.783 439.937 727.635 493.167 762.559C547.757 798.378 597.155 805.863 640.988 794.67C684.833 783.472 723.133 753.581 755.505 714.653C803.977 656.363 839.167 577.816 859.826 511.373C875.397 430.454 898.729 372.84 927.832 334.649C960.515 291.763 1000.48 273.365 1044.93 273.956C1089.35 274.547 1138.23 294.113 1188.79 327.171C1289.3 392.889 1396.45 511.945 1488.3 641.204L1488.31 641.223C1657.74 924.405 1754.18 971.601 1824.28 929.66C1861.19 907.58 1890.84 860.802 1919.99 810.731L1920 810.723ZM1920 781.534V782.597C1890.47 830.665 1860.58 875.88 1823.93 898.087C1752.91 941.134 1656.71 897.753 1489.16 621.316C1392.12 486.548 1284.67 369.339 1185.01 304.408C1132.97 270.501 1083.06 250.858 1037.89 250.421C992.744 249.987 952.308 268.739 919.181 311.628C890.45 348.821 867.21 404.163 851.148 480.871V480.886L851.14 480.902C828.53 547.71 792.783 626.544 744.472 685.022C712.044 724.276 673.951 754.36 630.367 765.492C586.775 776.624 537.7 768.79 483.333 732.196C432.868 698.231 377.829 639.481 318.363 548.105C256.351 457.317 129.105 497.68 0.00384 546.884V546.289C129.243 497.043 256.608 456.703 318.824 547.79C378.248 639.104 433.233 697.805 483.64 731.731C537.861 768.225 586.783 776.041 630.228 764.947C673.686 753.853 711.683 723.835 744.042 684.665C792.299 626.253 828.015 547.491 850.606 480.737C866.688 403.952 889.962 348.541 918.739 311.283C951.986 268.24 992.571 249.419 1037.89 249.857C1083.18 250.294 1133.19 269.971 1185.31 303.932C1285.03 368.901 1392.54 486.164 1489.61 620.986L1489.62 621.005C1656.95 897.078 1752.89 940.477 1823.64 897.6C1860.36 875.339 1890.34 829.82 1920 781.522L1920 781.534ZM1920 752.656V753.677C1890.08 799.814 1859.93 843.574 1823.59 865.908C1751.83 910.002 1656.05 870.579 1490.46 601.109C1388.63 461.321 1280.97 345.812 1182.17 281.491C1128.38 246.463 1077.22 226.621 1031.07 226.306C984.96 225.992 943.841 245.189 910.088 288.243C881.676 324.488 858.482 377.63 841.92 450.265V450.288L841.908 450.3C817.332 517.427 781.071 596.484 732.998 655.092C700.608 694.581 662.857 724.795 619.699 735.831C576.53 746.871 527.969 738.725 473.987 701.494C426.29 668.601 374.35 612.994 318.148 527.841C255.533 437.64 128.717 477.704 0 526.682V526.087C128.851 477.067 255.79 437.026 318.609 527.53C374.769 612.625 426.659 668.182 474.298 701.037C528.131 738.161 576.538 746.291 619.557 735.29C662.588 724.288 700.247 694.147 732.564 654.739C780.584 596.192 816.818 517.2 841.379 450.119C857.96 377.415 881.188 324.204 909.646 287.902C943.511 244.701 984.783 225.435 1031.07 225.75C1077.33 226.065 1128.59 245.941 1182.47 281.023C1281.33 345.389 1389.05 460.952 1490.91 600.802L1490.93 600.821C1656.29 869.915 1751.81 909.361 1823.29 865.435C1859.72 843.048 1889.95 799.004 1920 752.66L1920 752.656ZM1920 724.077V725.06C1889.81 769.081 1859.52 811.168 1823.62 833.559C1751.01 878.836 1655.56 843.567 1491.77 580.922C1385.64 436.715 1277.93 322.806 1180.08 258.931C1124.3 222.522 1071.74 202.372 1024.51 202.142C977.311 201.916 935.436 221.589 900.995 264.82C872.897 300.089 849.746 351.04 832.696 419.648V419.667L832.685 419.683C793.885 518.156 733.386 641.83 648.492 690.055C563.547 738.307 454.241 711.056 317.94 507.577C254.726 417.952 128.333 457.72 0 506.471V505.876C128.463 457.083 254.976 417.341 318.394 507.258C454.479 710.419 563.52 737.681 648.211 689.571C732.952 641.434 793.386 517.883 832.151 419.495C849.224 350.813 872.406 299.801 900.549 264.474C935.101 221.097 977.13 201.359 1024.5 201.589C1071.84 201.82 1124.5 221.999 1180.37 258.467C1278.28 322.38 1386.05 436.343 1492.22 580.603L1492.23 580.622C1655.79 842.899 1750.97 878.195 1823.31 833.091C1859.3 810.646 1889.68 768.294 1920 724.081L1920 724.077ZM1920 695.778V696.726C1889.68 738.449 1859.39 778.643 1824.08 801.004C1750.49 847.624 1655.26 816.746 1493.09 560.73C1383.21 412.804 1275.63 300.412 1178.82 236.824C1120.8 198.71 1066.65 178.131 1018.21 177.951C969.804 177.767 927.087 197.962 891.886 241.392C864.104 275.668 840.998 324.423 823.473 389.05V389.062L823.457 389.085C782.02 487.266 722.477 610.034 639.848 659.169C557.165 708.338 451.43 683.821 317.733 487.324C253.92 398.278 127.949 437.747 0.00384 486.272V485.677C128.083 437.11 254.166 397.668 318.186 486.997C451.661 683.176 557.13 707.709 639.56 658.689C722.039 609.639 781.528 486.994 822.931 388.893C840.48 324.196 863.616 275.38 891.448 241.043C926.761 197.474 969.627 177.214 1018.2 177.398C1066.75 177.582 1121 198.192 1179.11 236.364C1275.98 299.993 1383.62 412.431 1493.53 560.412L1493.54 560.431C1655.48 816.082 1750.45 846.991 1823.78 800.543C1859.17 778.125 1889.56 737.685 1920 695.786L1920 695.778ZM1920 667.748V668.658C1889.75 707.889 1859.61 745.953 1825.1 768.183C1750.33 816.347 1655.19 790.167 1494.39 540.528C1381.41 389.676 1274.18 278.731 1178.53 215.255C1117.94 175.045 1062 153.886 1012.2 153.702C962.438 153.518 918.789 174.293 882.751 217.942C855.283 251.204 832.228 297.755 814.245 358.437L814.237 358.456L814.23 358.471C770.154 456.361 711.564 578.219 631.2 628.268C550.775 678.355 448.616 656.57 317.518 467.048C253.102 378.59 127.561 417.763 0 466.061V465.47C127.692 417.13 253.352 377.983 317.971 466.729V466.737C448.842 655.925 550.737 677.729 630.904 627.799C711.13 577.835 769.67 456.081 813.711 358.26C831.717 297.517 854.807 250.908 882.317 217.593C918.474 173.805 962.262 152.965 1012.2 153.149C1062.11 153.334 1118.15 174.527 1178.83 214.794C1274.54 278.309 1381.82 389.304 1494.84 540.213L1494.85 540.228C1655.42 789.495 1750.3 815.709 1824.79 767.719C1859.39 745.431 1889.63 707.145 1920 667.752L1920 667.748ZM1920 639.972V640.851C1890.05 677.38 1860.28 713.06 1826.8 735.017C1750.65 784.966 1655.44 763.891 1495.7 520.336C1380.35 367.446 1273.73 257.899 1179.37 194.353C1115.83 151.564 1057.85 129.641 1006.53 129.403C955.231 129.165 910.552 150.589 873.577 194.499C846.44 226.725 823.442 271.061 805.014 327.827V327.839L804.998 327.862L804.346 329.221C758.88 424.224 703.066 540.842 628.163 593.566C549.12 649.204 448.896 633.726 317.307 446.787C252.296 358.909 127.173 397.783 0 445.859V445.267C127.304 397.154 252.541 358.303 317.756 446.461V446.469C449.107 633.062 549.062 648.57 627.844 593.113C702.628 540.474 758.408 423.924 803.846 328.983L804.484 327.647C822.931 270.82 845.964 226.425 873.147 194.146C910.237 150.105 955.054 128.613 1006.53 128.854C1057.97 129.096 1116.04 151.05 1179.67 193.9C1274.09 257.48 1380.75 367.078 1496.15 520.018L1496.16 520.033C1655.66 763.216 1750.6 784.332 1826.5 734.56C1860.06 712.546 1889.93 676.662 1920 639.983V639.972ZM1920 612.441V613.286C1890.65 646.881 1861.54 679.898 1829.38 701.394C1751.55 753.443 1656.08 738.011 1497.01 500.137C1380.1 346.245 1274.42 238.08 1181.53 174.293C1114.58 128.321 1054.28 105.408 1001.22 105.047C948.184 104.686 902.369 126.858 864.357 171.06C837.558 202.223 814.633 244.333 795.79 297.214L795.782 297.233L795.775 297.249C792.242 304.216 788.671 311.298 785.061 318.461C738.993 409.852 686.104 514.762 617.403 564.024C540.929 618.863 444.933 604.783 317.1 426.516C251.489 339.221 126.793 377.799 0.00384 425.648V425.053C126.92 377.166 251.735 338.61 317.549 426.189C445.133 604.115 540.856 618.226 617.073 563.575C685.663 514.39 738.516 409.545 784.558 318.212C788.168 311.052 791.739 303.974 795.268 297.015C814.134 244.076 837.089 201.916 863.931 170.703C902.054 126.371 948.015 104.133 1001.22 104.494C1054.39 104.855 1114.8 127.803 1181.84 173.836C1274.78 237.657 1380.51 345.865 1497.46 499.815L1497.47 499.826C1656.3 737.328 1751.51 752.805 1829.08 700.934C1861.32 679.372 1890.54 646.175 1920 612.441ZM1920 585.137V585.954C1891.66 616.337 1863.58 646.359 1833.14 667.15C1753.25 721.705 1657.26 712.68 1498.32 479.946C1335.13 266.447 1197.32 143.61 1084.82 99.4695C1045.85 84.1801 1009.93 78.3376 977.053 81.4393C944.183 84.5409 914.342 96.5828 887.539 117.074C846.931 148.113 813.274 198.534 786.563 266.612V266.624L786.547 266.643C779.816 279.207 772.981 292.22 766.049 305.41C720.108 392.87 670.011 488.241 606.674 534.558C532.789 588.591 440.966 575.916 316.892 406.259C250.687 319.544 126.409 357.83 0.00768 405.449V404.854C126.536 357.193 250.932 318.933 317.341 405.925C441.166 575.244 532.723 587.954 606.344 534.109C669.577 487.865 719.643 392.555 765.558 305.149C772.458 292.013 779.263 279.053 786.048 266.397C812.797 198.234 846.513 147.733 887.205 116.632C914.093 96.0799 944.026 83.9997 977.004 80.8865C1009.97 77.7772 1045.98 83.6311 1085.02 98.9512C1197.61 143.127 1335.51 266.025 1498.77 479.616L1498.78 479.627C1657.46 711.989 1753.19 721.064 1832.82 666.689C1863.36 645.833 1891.55 615.65 1920 585.137ZM1920 558.055V558.842L1919.46 559.383C1892.88 586.016 1866.54 612.414 1838.51 631.991C1756.04 689.606 1659.18 688.124 1499.64 459.758C1337.16 248.386 1202.6 127.799 1092.72 80.1572C1049.48 61.4092 1010.06 53.9583 974.269 56.7183C938.492 59.4783 906.336 72.4453 877.605 94.5329C837.784 125.142 804.534 173.264 777.331 236.007V236.018L777.32 236.034C767.359 253.672 757.371 272.067 747.279 290.65C701.975 374.087 654.559 461.417 595.987 505.158C524.717 558.381 437.011 547.119 316.681 385.995C249.884 299.855 126.021 337.846 0.00384 385.242V384.647C126.144 337.217 250.122 299.249 317.123 385.661C437.196 546.447 524.64 557.74 595.649 504.713C654.129 461.04 701.514 373.772 746.788 290.385C756.864 271.825 766.836 253.461 776.824 235.776C804.065 172.953 837.37 124.762 877.263 94.0953C906.083 71.9424 938.339 58.9371 974.227 56.1656C1010.1 53.3979 1049.61 60.8602 1092.94 79.6466C1202.91 127.33 1337.54 247.972 1500.07 459.417L1500.08 459.428C1659.36 687.429 1755.97 688.976 1838.19 631.538C1866.17 611.992 1892.5 585.613 1919.07 558.995L1920 558.059V558.055ZM1920 531.18V531.94L1918.31 533.522C1894.53 555.74 1870.92 577.786 1846.29 595.42C1760.43 656.908 1662.22 664.785 1500.94 439.555C1302.89 183.233 1149.6 62.4379 1030.84 36.8725C912.184 11.3262 828 80.9249 768.1 205.401L768.092 205.413V205.42C754.848 227.715 741.804 251.108 728.713 274.585C684.422 354.011 639.606 434.385 585.343 475.823C516.714 528.236 433.06 518.394 316.47 365.73C249.082 280.163 125.633 317.866 0 365.036V364.441C125.756 317.237 249.312 279.56 316.908 365.389C433.24 517.722 516.634 527.599 585.005 475.385C639.176 434.016 683.965 353.692 728.225 274.32C741.324 250.828 754.376 227.42 767.601 205.148C827.616 80.4374 911.989 10.7158 1030.95 36.3274C1149.83 61.9235 1303.23 182.78 1501.37 439.221L1501.38 439.229C1662.39 664.075 1760.35 656.271 1845.96 594.967C1870.56 577.348 1894.15 555.318 1917.93 533.115L1920 531.18H1920ZM1920 504.502V505.239L1917.22 507.653C1897.6 524.693 1878.09 541.629 1858.12 556.324C1767.51 622.99 1667.23 643.615 1502.25 419.36C1295.66 153.241 1140.61 34.6844 1021.79 11.3761C903.06 -11.9131 820.512 59.9735 758.876 174.784L758.868 174.799C742.303 201.394 726.278 229.523 710.35 257.488C667.365 332.96 625.071 407.215 574.767 446.557C508.796 498.156 429.128 489.746 316.266 345.455C248.287 260.47 125.253 297.878 0.00768 344.821V344.226C125.376 297.249 248.513 259.864 316.7 345.109C429.301 489.07 508.708 497.515 574.422 446.12C624.637 406.842 666.904 332.633 709.862 257.211C725.798 229.235 741.827 201.09 758.388 174.511C820.14 59.4937 902.868 -12.5196 1021.89 10.831C1140.83 34.1624 1296.01 152.785 1502.7 419.011H1502.7C1667.4 642.882 1767.42 622.345 1857.8 555.859C1877.76 541.172 1897.25 524.248 1916.86 507.219L1920.01 504.49L1920 504.502ZM1920 478.011V478.725L1916.21 481.781C1805.62 570.768 1698.77 656.754 1503.56 399.165C1288.43 123.265 1131.61 6.94243 1012.73 -14.1049C893.937 -35.137 813.016 39.0375 749.645 144.178L749.637 144.186C729.646 174.83 710.738 207.485 692.156 239.581C650.7 311.175 610.875 379.956 564.25 417.376C500.955 468.169 425.211 461.202 316.059 325.19C247.488 240.782 124.869 277.898 0.01152 324.614V324.02C124.992 277.268 247.715 240.176 316.493 324.837C425.376 460.518 500.867 467.524 563.9 416.938C610.449 379.588 650.246 310.849 691.676 239.296C710.258 207.201 729.17 174.542 749.169 143.887C812.655 38.5576 893.741 -35.7435 1012.83 -14.6615C1131.83 6.40886 1288.77 122.793 1504.01 398.804C1698.87 655.941 1805.5 570.131 1915.86 481.324L1920.01 477.988L1920 478.011ZM1920 451.701V452.392L1915.28 455.904C1802.72 539.545 1693.91 620.406 1504.87 378.97C1155.03 -67.8461 964.439 -94.901 835.715 5.89064C770.108 57.2596 720.534 141.848 674.139 221.009C634.399 288.819 596.989 352.652 553.801 388.279C493.198 438.27 421.302 432.761 315.852 304.93C246.693 221.094 124.489 257.925 0.01152 304.415V303.82C124.604 257.296 246.916 220.495 316.282 304.577C421.463 432.078 493.106 437.628 553.448 387.849C596.559 352.284 633.946 288.493 673.659 220.729C720.081 141.526 769.678 56.8911 835.373 5.45687C964.339 -95.5229 1155.19 -68.5371 1505.31 378.621C1694.02 619.627 1802.62 538.927 1914.95 455.451L1920.01 451.693L1920 451.701ZM0.01152 728.169C132.726 676.888 264.012 633.803 320.744 730.2C412.293 885.75 498.774 972.565 576.357 1012.47C632.874 1041.54 684.668 1045.71 730.253 1033.43C775.845 1021.15 815.232 992.403 846.935 955.656C896.636 898.041 927.441 820.75 933.631 756.325C945.043 637.569 969.888 561.471 1003.07 517.031C1032.78 477.259 1069.16 462.825 1108.57 465.858C1147.95 468.891 1190.34 489.366 1232.12 519.426C1337.12 594.975 1438.3 731.094 1477.86 802.792C1534.49 905.415 1583.32 983.962 1625.74 1042.69H1625.08C1582.67 983.966 1533.9 905.492 1477.37 803.057C1437.83 731.405 1336.72 595.374 1231.79 519.876C1190.09 489.873 1147.79 469.436 1108.52 466.411C1069.3 463.39 1033.09 477.762 1003.52 517.361C970.391 561.725 945.585 637.73 934.184 756.375C927.982 820.903 897.132 898.314 847.354 956.016C815.581 992.844 776.102 1021.65 730.395 1033.97C684.684 1046.29 632.755 1042.11 576.1 1012.96C498.432 973.014 411.871 886.13 320.26 730.476C263.731 634.425 132.572 677.533 0.00768 728.764V728.165L0.01152 728.169Z" fill="white"/>
</mask>
<g mask="url(#mask1_201_2458)">
</g>
</g>
<defs>
<filter id="filter0_f_201_2458" x="1195" y="295" width="574" height="574" filterUnits="userSpaceOnUse" color-interpolation-filters="sRGB">
<feFlood flood-opacity="0" result="BackgroundImageFix"/>
<feBlend mode="normal" in="SourceGraphic" in2="BackgroundImageFix" result="shape"/>
<feGaussianBlur stdDeviation="75" result="effect1_foregroundBlur_201_2458"/>
</filter>
<filter id="filter1_f_201_2458" x="1540" y="-269" width="622" height="608" filterUnits="userSpaceOnUse" color-interpolation-filters="sRGB">
<feFlood flood-opacity="0" result="BackgroundImageFix"/>
<feBlend mode="normal" in="SourceGraphic" in2="BackgroundImageFix" result="shape"/>
<feGaussianBlur stdDeviation="75" result="effect1_foregroundBlur_201_2458"/>
</filter>
<linearGradient id="paint0_linear_201_2458" x1="1638.3" y1="554.441" x2="1325.7" y2="609.559" gradientUnits="userSpaceOnUse">
<stop stop-color="#8750F7"/>
<stop offset="1" stop-color="#7343D2" stop-opacity="0"/>
</linearGradient>
<linearGradient id="paint1_linear_201_2458" x1="2033.48" y1="2.8237" x2="1668.52" y2="67.1763" gradientUnits="userSpaceOnUse">
<stop stop-color="#8750F7"/>
<stop offset="1" stop-color="#7343D2" stop-opacity="0"/>
</linearGradient>
<clipPath id="clip0_201_2458">
<rect width="1920" height="1000" fill="white"/>
</clipPath>
<clipPath id="clip1_201_2458">
<rect width="1920" height="1085.7" fill="white"/>
</clipPath>
</defs>
</svg>
