<svg width="16" height="14" viewBox="0 0 16 14" fill="none" xmlns="http://www.w3.org/2000/svg">
<path d="M14.5836 8.93909C14.4703 8.93909 14.3569 8.98631 14.2436 9.08076C14.1303 9.1752 14.0736 9.29798 14.0736 9.44909V11.2624C14.0736 11.7158 13.9131 12.103 13.5919 12.4241C13.2708 12.7452 12.9025 12.9058 12.4869 12.9058H3.19361C2.77805 12.9058 2.40972 12.7452 2.08861 12.4241C1.7675 12.103 1.60694 11.7158 1.60694 11.2624V9.44909C1.60694 9.29798 1.55027 9.1752 1.43694 9.08076C1.32361 8.98631 1.20083 8.93909 1.06861 8.93909C0.936385 8.93909 0.813607 8.98631 0.700273 9.08076C0.58694 9.1752 0.530273 9.29798 0.530273 9.44909V11.2624C0.530273 12.018 0.794718 12.6602 1.32361 13.1891C1.8525 13.718 2.47583 13.9824 3.19361 13.9824H12.4869C13.2047 13.9824 13.8281 13.718 14.3569 13.1891C14.8858 12.6602 15.1503 12.018 15.1503 11.2624V9.44909C15.1503 9.29798 15.0936 9.1752 14.9803 9.08076C14.8669 8.98631 14.7347 8.93909 14.5836 8.93909ZM7.44361 10.4691C7.55694 10.5824 7.68916 10.6391 7.84027 10.6391C7.99138 10.6391 8.12361 10.5824 8.23694 10.4691L11.2403 7.46575C11.3158 7.35242 11.3536 7.22964 11.3536 7.09742C11.3536 6.9652 11.3064 6.85187 11.2119 6.75742C11.1175 6.66298 11.0042 6.60631 10.8719 6.58742C10.7397 6.56853 10.6169 6.61576 10.5036 6.72909L8.35027 8.82576V0.949088C8.35027 0.797977 8.30305 0.665754 8.20861 0.552422C8.11416 0.439088 7.99138 0.382421 7.84027 0.382421C7.68916 0.382421 7.56638 0.439088 7.47194 0.552422C7.3775 0.665754 7.33027 0.797977 7.33027 0.949088V8.82576L5.17694 6.72909C5.06361 6.61576 4.94083 6.55909 4.80861 6.55909C4.67638 6.55909 4.55361 6.60631 4.44027 6.70076C4.32694 6.7952 4.27027 6.91798 4.27027 7.06909C4.27027 7.2202 4.32694 7.35242 4.44027 7.46575L7.44361 10.4691Z" fill="#8750F7"/>
</svg>
