<svg width="80" height="81" viewBox="0 0 80 81" fill="none" xmlns="http://www.w3.org/2000/svg">
<g clip-path="url(#clip0_115_38850)">
<path d="M40.0928 40.9822C40.0928 33.6185 46.0623 27.6489 53.4261 27.6489C60.7898 27.6489 66.7593 33.6186 66.7593 40.9822C66.7593 48.3461 60.7896 54.3155 53.4261 54.3155C46.0621 54.3155 40.0928 48.346 40.0928 40.9822Z" fill="#00BCFF"/>
<path d="M13.4268 67.6489C13.4268 60.2851 19.3963 54.3156 26.76 54.3156L33.8655 50.5642L40.0933 54.3156V67.6489C40.0933 75.0128 34.1238 80.9822 26.76 80.9822C19.3963 80.9822 13.4268 75.0126 13.4268 67.6489Z" fill="#00CF7F"/>
<path d="M40.0932 0.982178L32.8379 13.5869L40.0932 27.6487H53.2395C60.6034 27.6487 66.5727 21.6792 66.5727 14.3155C66.5727 6.95171 60.6032 0.982178 53.2395 0.982178H40.0932Z" fill="#FF7361"/>
<path d="M13.2393 14.3155C13.2393 21.6792 19.2088 27.6487 26.5725 27.6487L33.6455 30.3806L40.0928 27.6487V0.982178H26.5724C19.2088 0.982178 13.2393 6.95171 13.2393 14.3155Z" fill="#FF4D12"/>
<path d="M13.333 41.7141C13.333 49.078 19.3025 55.0473 26.6663 55.0473H39.9996V28.3806H26.6663C19.3025 28.3806 13.333 34.3503 13.333 41.7141Z" fill="#B659FF"/>
</g>
<defs>
<clipPath id="clip0_115_38850">
<rect width="80" height="80" fill="white" transform="translate(0 0.982178)"/>
</clipPath>
</defs>
</svg>
