<svg width="80" height="79" viewBox="0 0 80 79" fill="none" xmlns="http://www.w3.org/2000/svg">
<g clip-path="url(#clip0_115_38898)">
<path d="M65.8332 0.0671387H14.1668C6.34268 0.0671387 0 6.41974 0 14.2561V63.9995C0 71.8359 6.34268 78.1885 14.1668 78.1885H65.8332C73.6573 78.1885 80 71.8359 80 63.9995V14.2561C80 6.41974 73.6573 0.0671387 65.8332 0.0671387Z" fill="#330000"/>
<path d="M38.7671 46.95H26.3694L23.8479 54.7972C23.8147 54.941 23.7318 55.0684 23.6139 55.1569C23.496 55.2455 23.3506 55.2895 23.2035 55.2813H16.9249C16.5662 55.2813 16.441 55.0839 16.5495 54.6891L27.2829 23.7232C27.3872 23.4005 27.4946 23.0349 27.6051 22.6265C27.7445 21.909 27.8162 21.1799 27.8194 20.4489C27.813 20.4057 27.8152 20.3616 27.8259 20.3192C27.8367 20.2769 27.8557 20.2371 27.8818 20.2021C27.908 20.1671 27.9409 20.1377 27.9785 20.1155C28.0161 20.0934 28.0577 20.0789 28.101 20.0729C28.1321 20.0682 28.1637 20.0682 28.1948 20.0729H36.7274C36.9777 20.0729 37.12 20.1622 37.1576 20.3408L49.3394 54.7424C49.4473 55.0995 49.3394 55.2797 49.0172 55.2797H42.0409C41.9211 55.293 41.8006 55.2622 41.7019 55.193C41.6031 55.1238 41.5329 55.021 41.5044 54.9037L38.7671 46.95ZM28.3027 40.1727H36.7806C36.5668 39.4552 36.3165 38.6489 36.0298 37.7539C35.743 36.8588 35.439 35.9 35.1179 34.8775L34.1512 31.8148C33.829 30.7934 33.5339 29.8074 33.2659 28.857C32.9979 27.9066 32.7544 27.0397 32.5354 26.2564H32.4822C32.1799 27.7077 31.8035 29.1425 31.3544 30.5552C30.8539 32.1689 30.344 33.8175 29.8247 35.5011C29.3054 37.1847 28.7981 38.7419 28.3027 40.1727Z" fill="#FF9A00"/>
<path d="M56.5825 25.7723C56.0351 25.7941 55.4893 25.7001 54.9807 25.4963C54.4721 25.2924 54.0121 24.9835 53.6309 24.5895C53.2507 24.1784 52.9554 23.6959 52.7621 23.17C52.5688 22.6441 52.4813 22.0851 52.5047 21.5252C52.4861 20.9719 52.584 20.421 52.792 19.9081C53.0001 19.3953 53.3136 18.9321 53.7122 18.5486C54.107 18.1691 54.5728 17.8716 55.0829 17.6731C55.5929 17.4747 56.1371 17.3793 56.6842 17.3924C57.972 17.3924 58.9825 17.7778 59.7155 18.5486C60.4592 19.3567 60.8529 20.427 60.8105 21.5252C60.833 22.0874 60.7425 22.6484 60.5442 23.1748C60.3459 23.7013 60.0438 24.1824 59.6561 24.5895C59.2526 24.9879 58.7714 25.2985 58.2425 25.5021C57.7136 25.7056 57.1485 25.7976 56.5825 25.7723ZM52.8801 54.7423V29.0497C52.8801 28.727 53.0224 28.5656 53.3087 28.5656H59.9079C60.1926 28.5656 60.3365 28.7223 60.3365 29.0497V54.7423C60.3365 55.0995 60.1942 55.2797 59.9079 55.2797H53.3634C53.0412 55.2813 52.8801 55.1011 52.8801 54.7423Z" fill="#FF9A00"/>
</g>
<defs>
<clipPath id="clip0_115_38898">
<rect width="80" height="78.1213" fill="white" transform="translate(0 0.0671387)"/>
</clipPath>
</defs>
</svg>
