<svg width="14" height="15" viewBox="0 0 14 15" fill="none" xmlns="http://www.w3.org/2000/svg">
<path d="M3.125 14.4824H0.21875V5.13867H3.125V14.4824ZM1.65625 3.88867C0.75 3.88867 0 3.10742 0 2.16992C0 1.26367 0.75 0.513672 1.65625 0.513672C2.59375 0.513672 3.34375 1.26367 3.34375 2.16992C3.34375 3.10742 2.59375 3.88867 1.65625 3.88867ZM13.9688 14.4824H11.0938V9.95117C11.0938 8.85742 11.0625 7.48242 9.5625 7.48242C8.0625 7.48242 7.84375 8.63867 7.84375 9.85742V14.4824H4.9375V5.13867H7.71875V6.41992H7.75C8.15625 5.70117 9.09375 4.91992 10.5 4.91992C13.4375 4.91992 14 6.85742 14 9.35742V14.4824H13.9688Z" fill="#8750F7"/>
</svg>
