<svg width="16" height="17" viewBox="0 0 16 17" fill="none" xmlns="http://www.w3.org/2000/svg">
<path d="M10.5643 8.48242C10.5643 8.98874 10.4141 9.48369 10.1327 9.90468C9.85126 10.3257 9.45128 10.6538 8.98332 10.8476C8.51535 11.0413 8.00041 11.092 7.50361 10.9932C7.00682 10.8945 6.55049 10.6506 6.19232 10.2926C5.83415 9.93459 5.59024 9.47844 5.49142 8.98185C5.3926 8.48526 5.44332 7.97053 5.63716 7.50275C5.831 7.03497 6.15925 6.63516 6.58041 6.35386C7.00157 6.07256 7.49672 5.92242 8.00325 5.92242C8.68183 5.92453 9.33201 6.19492 9.81184 6.67456C10.2917 7.1542 10.5622 7.80412 10.5643 8.48242ZM16.0065 4.96242V12.0024C16.0065 13.1906 15.5343 14.3301 14.6938 15.1703C13.8533 16.0104 12.7133 16.4824 11.5247 16.4824H4.48182C3.29317 16.4824 2.1532 16.0104 1.31269 15.1703C0.47219 14.3301 0 13.1906 0 12.0024V4.96242C0 3.77425 0.47219 2.63475 1.31269 1.79458C2.1532 0.95442 3.29317 0.482422 4.48182 0.482422H11.5247C12.7133 0.482422 13.8533 0.95442 14.6938 1.79458C15.5343 2.63475 16.0065 3.77425 16.0065 4.96242ZM11.8448 8.48242C11.8448 7.72294 11.6195 6.98052 11.1974 6.34903C10.7753 5.71755 10.1753 5.22537 9.47335 4.93472C8.7714 4.64408 7.99899 4.56804 7.2538 4.71621C6.50861 4.86437 5.82411 5.2301 5.28686 5.76713C4.7496 6.30417 4.38373 6.98839 4.2355 7.73327C4.08728 8.47816 4.16335 9.25026 4.45411 9.95193C4.74487 10.6536 5.23725 11.2533 5.86899 11.6753C6.50073 12.0972 7.24346 12.3224 8.00325 12.3224C9.02209 12.3224 9.99921 11.9179 10.7196 11.1977C11.4401 10.4776 11.8448 9.50085 11.8448 8.48242ZM13.1253 4.32242C13.1253 4.13255 13.069 3.94695 12.9635 3.78907C12.8579 3.6312 12.708 3.50816 12.5325 3.4355C12.357 3.36284 12.1639 3.34383 11.9776 3.38087C11.7913 3.41791 11.6202 3.50934 11.4858 3.6436C11.3515 3.77786 11.2601 3.94891 11.223 4.13513C11.1859 4.32136 11.205 4.51438 11.2777 4.6898C11.3503 4.86521 11.4734 5.01515 11.6314 5.12063C11.7893 5.22612 11.975 5.28242 12.1649 5.28242C12.4196 5.28242 12.6639 5.18128 12.844 5.00124C13.0241 4.82121 13.1253 4.57703 13.1253 4.32242Z" fill="#8750F7"/>
</svg>
