<svg width="80" height="81" viewBox="0 0 80 81" fill="none" xmlns="http://www.w3.org/2000/svg">
<g clip-path="url(#clip0_115_38906)">
<path d="M17.3333 0.832275H62.6667C72.1667 0.832275 80 8.66561 80 18.1656V63.4989C80 72.9989 72.1667 80.8323 62.6667 80.8323H17.3333C7.83333 80.8323 0 72.9989 0 63.4989V18.1656C0 8.66561 7.83333 0.832275 17.3333 0.832275Z" fill="#FFD02F"/>
<path fill-rule="evenodd" clip-rule="evenodd" d="M55.5003 10.8323H46.667L54.0003 23.6656L38.0003 10.8323H29.167L37.167 26.4989L20.5003 10.8323H11.667L20.5003 30.8323L11.667 70.8323H20.5003L37.3337 27.9989L29.167 70.8323H38.0003L54.167 25.1656L46.8337 70.8323H55.667L71.667 20.8323L55.5003 10.8323Z" fill="#050038"/>
</g>
<defs>
<clipPath id="clip0_115_38906">
<rect width="80" height="80" fill="white" transform="translate(0 0.832275)"/>
</clipPath>
</defs>
</svg>
