<svg width="82" height="50" viewBox="0 0 82 50" fill="none" xmlns="http://www.w3.org/2000/svg">
<path fill-rule="evenodd" clip-rule="evenodd" d="M6.20601 0H0V49.7098H6.2648V49.6692H6.20601V0ZM12.4251 15.2385L30.7815 47.0034V34.4122L12.4251 2.64724V15.2385ZM37.0005 49.7091V44.921V43.7174V0.0177325H36.9759V0H43.3769V49.7098H32.3454L32.345 49.7091H37.0005Z" fill="white"/>
<path fill-rule="evenodd" clip-rule="evenodd" d="M49.3774 0H58.9788C62.6106 0 65.7884 0.544765 68.5122 1.63429C71.236 2.72382 73.347 4.40352 74.8451 6.67337C76.3432 8.94323 77.0923 11.8713 77.0923 15.4577V16.5472C77.0923 20.1336 76.3205 23.0617 74.777 25.3316C73.2789 27.6014 71.168 29.2811 68.4441 30.3707C67.9944 30.5536 67.5312 30.7212 67.0546 30.8734L81.5185 49.9822H73.4151L60.0176 31.9897C59.6758 31.9999 59.3295 32.005 58.9788 32.005H49.3774V49.9822H49.377V32.005V26.0806V5.85623V0H49.3774ZM49.3774 5.85623V26.0806H60.2046C62.2928 26.0806 64.086 25.6494 65.5841 24.7868C67.0822 23.9243 68.2398 22.7439 69.057 21.2458C69.8741 19.7023 70.2827 17.9545 70.2827 16.0025C70.2827 14.0504 69.8741 12.3253 69.057 10.8272C68.2398 9.2837 67.0822 8.08068 65.5841 7.21814C64.086 6.3102 62.2928 5.85623 60.2046 5.85623H49.3774Z" fill="white"/>
</svg>
