<svg width="80" height="81" viewBox="0 0 80 81" fill="none" xmlns="http://www.w3.org/2000/svg">
<path d="M14.1666 1.98193H65.8334C73.6574 1.98193 80 8.32457 80 16.1486V65.8153C80 73.6394 73.6574 79.982 65.8334 79.982H14.1666C6.34264 79.982 0 73.6394 0 65.8153V16.1486C0 8.32457 6.34264 1.98193 14.1666 1.98193Z" fill="#470137"/>
<path d="M42.0561 22.4948L32.074 38.9704L42.7537 56.4657C42.8221 56.5881 42.8413 56.7321 42.8074 56.8682C42.7713 56.994 42.6465 56.9148 42.4318 56.9501H34.8112C34.2744 56.9501 33.8988 56.9312 33.6841 56.5731C32.968 55.1778 32.2524 53.7914 31.5374 52.414C30.8214 51.037 30.0611 49.6326 29.2567 48.2011C28.4517 46.7707 27.6557 45.3216 26.8685 43.854H26.8147C26.0987 45.2854 25.3562 46.7166 24.5875 48.1474C23.8178 49.5787 23.0575 51.0009 22.3067 52.4138C21.5554 53.8275 20.7862 55.2318 19.9992 56.6267C19.8557 56.9487 19.6049 56.9818 19.2476 56.9818H11.8953C11.7527 56.9818 11.6722 57.0382 11.6538 56.8949C11.6336 56.764 11.6622 56.6304 11.7344 56.5193L22.0919 39.507L12.0027 22.441C11.8953 22.2985 11.8775 22.1823 11.9489 22.0923C12.0292 21.9995 12.1486 21.9498 12.2711 21.9581H19.8379C20.0029 21.949 20.1679 21.9765 20.321 22.0387C20.4493 22.1113 20.5595 22.2123 20.643 22.3338C21.2871 23.7652 22.0027 25.1963 22.7897 26.6272C23.5764 28.0585 24.3723 29.4718 25.1779 30.8669C25.9829 32.2622 26.7254 33.6754 27.4052 35.1066H27.459C28.1741 33.6399 28.8986 32.2089 29.6325 30.8133C30.3654 29.418 31.1167 28.0137 31.8863 26.6004C32.6554 25.1875 33.3978 23.7832 34.1136 22.3876C34.1547 22.2551 34.2286 22.1353 34.3283 22.0388C34.4608 21.9717 34.6097 21.9437 34.7577 21.9582H41.7879C41.9528 21.9176 42.1195 22.0182 42.1603 22.1831C42.1884 22.2982 42.1479 22.4196 42.0561 22.4948Z" fill="#FF61F6"/>
<path d="M57.4575 57.6465C54.9874 57.684 52.5398 57.1707 50.293 56.1437C48.1999 55.175 46.4501 53.5936 45.2753 51.6088C44.0585 49.588 43.4504 47.0566 43.4507 44.015C43.4305 41.5519 44.0599 39.127 45.2753 36.9846C46.5273 34.8024 48.3687 33.0169 50.5883 31.8325C52.9135 30.5446 55.722 29.9005 59.014 29.9005C59.1926 29.9005 59.4251 29.9094 59.7116 29.9274C59.9976 29.9458 60.3375 29.9726 60.7313 30.0079V19.4355C60.7313 19.1857 60.8388 19.0599 61.0535 19.0599H67.8153C67.9709 19.0377 68.1151 19.1458 68.1373 19.3014C68.1411 19.3282 68.1411 19.3552 68.1373 19.3819V51.099C68.1373 51.7078 68.1642 52.3698 68.2178 53.0847C68.2715 53.8008 68.3162 54.4449 68.352 55.0167C68.3654 55.2448 68.2376 55.458 68.0298 55.5534C66.2854 56.2809 64.4684 56.8207 62.6097 57.1634C60.91 57.4771 59.1859 57.6387 57.4575 57.6465ZM60.7311 50.9918V36.3408C60.4411 36.2622 60.1449 36.2083 59.8457 36.1797C59.4801 36.143 59.1129 36.1251 58.7454 36.1261C57.4431 36.1132 56.1561 36.4074 54.9888 36.9847C53.8518 37.5499 52.881 38.4005 52.1714 39.4534C51.4376 40.5266 51.0709 41.9399 51.0711 43.6931C51.045 44.8629 51.2361 46.0276 51.6345 47.1277C51.9589 48.0143 52.4715 48.8199 53.1373 49.4891C53.7746 50.1048 54.5461 50.564 55.3911 50.8307C56.2837 51.1198 57.2167 51.2646 58.1549 51.2599C58.6556 51.2599 59.1207 51.242 59.5502 51.2064C59.9505 51.1764 60.3461 51.1043 60.7311 50.9918Z" fill="#FF61F6"/>
</svg>
